<svg id="Top_Background_Dark" data-name="Top Background Dark" xmlns="http://www.w3.org/2000/svg" width="1920" height="790.448" viewBox="0 0 1920 790.448">
  <path id="Path_22" data-name="Path 22" d="M0,760l29,8.4c29,8.2,87,25,145.4,21.6,58.2-3.4,117-26.6,175.2-54C408,708.6,466,677.4,524,668.6c58-8.6,116,5.4,174,28.8,58,23.2,116,56,174.4,49.2,58.2-6.6,117-52.6,175.2-61.2,58.4-8.8,116.4,20,174.4,21.2,58,1.4,116-24.6,174-33.6s116-1,174.4-4.4c58.2-3.2,117-18,175.2-9.6,58.4,8.4,116.4,39.6,145.4,55.4l29,15.6V0H0Z" fill="#283044"/>
  <path id="Path_23" data-name="Path 23" d="M0,722l29-15.4c29-15.2,87-46,145.4-66.2,58.2-20.4,117-30.4,175.2-33.8C408,603.4,466,606.6,524,624s116,48.6,174,44.6S814,625.4,872.4,621c58.2-4.4,117,26.4,175.2,34.6,58.4,8.4,116.4-5.6,174.4-23,58-17.2,116-38,174-19.2,58,18.6,116,76.6,174.4,94,58.2,17.2,117-6,175.2-29,58.4-23,116.4-45.8,145.4-57l29-11.4V0H0Z" fill="#2b344b"/>
  <path id="Path_24" data-name="Path 24" d="M0,626l29-10c29-10,87-30,145.4-33.6,58.2-3.8,117,9,175.2,7.2C408,588,466,572,524,576.6c58,4.8,116,30,174,48.8C756,644,814,656,872.4,654.6c58.2-1.2,117-16,175.2-37.6,58.4-21.6,116.4-50.4,174.4-68.4s116-25.2,174-7.2,116,61.2,174.4,75.2c58.2,14,117-1.2,175.2-10.2,58.4-9,116.4-11.8,145.4-13l29-1.4V0H0Z" fill="#2e3852"/>
  <path id="Path_25" data-name="Path 25" d="M0,462l29,5.6c29,5.8,87,17,145.4,23.4a1091.364,1091.364,0,0,0,175.2,4.6C408,492.6,466,485.4,524,485s116,6.4,174,14.4S814,516.6,872.4,526c58.2,9.4,117,18.6,175.2,20.6,58.4,2,116.4-3.2,174.4,3,58,6.4,116,24.4,174,13.4s116-51,174.4-65c58.2-14,117-2,175.2,0,58.4,2,116.4-6,145.4-10l29-4V0H0Z" fill="#323c59"/>
  <path id="Path_26" data-name="Path 26" d="M0,512l29-12c29-12,87-36,145.4-46,58.2-10,117-6,175.2,0C408,460,466,468,524,461s116-29,174-38.6c58-9.8,116-7,174.4,9,58.2,16,117,45.2,175.2,43.6,58.4-1.6,116.4-34.4,174.4-51.6,58-17.4,116-19.4,174-3.8,58,15.8,116,49,174.4,58.4,58.2,9.4,117-5.4,175.2-9.6C1804,464,1862,470,1891,473l29,3V0H0Z" fill="#354060"/>
  <path id="Path_27" data-name="Path 27" d="M0,402l29-10c29-10,87-30,145.4-26.4,58.2,3.8,117,31,175.2,32.4C408,399.4,466,374.6,524,381s116,43.6,174,52.4c58,8.6,116-11.4,174.4-25,58.2-13.8,117-21,175.2-14.8C1106,400,1164,420,1222,420.6c58,.8,116-18,174-16.6s116,22.6,174.4,21.6c58.2-1,117-24.2,175.2-23C1804,404,1862,430,1891,443l29,13V0H0Z" fill="#394467"/>
  <path id="Path_28" data-name="Path 28" d="M0,290l29,11.6c29,11.8,87,35,145.4,50.8,58.2,15.6,117,23.6,175.2,19.2,58.4-4.2,116.4-21,174.4-38S640,299.4,698,296s116,7.4,174.4,8c58.2.6,117-8.6,175.2,5,58.4,13.6,116.4,50.4,174.4,62s116-1.6,174-2.6,116,10.2,174.4-1.8c58.2-12,117-47.2,175.2-53.2,58.4-6,116.4,17.2,145.4,29l29,11.6V0H0Z" fill="#3d486e"/>
  <path id="Path_29" data-name="Path 29" d="M0,284l29-2c29-2,87-6,145.4-3.6,58.2,2.2,117,11,175.2,11.2C408,290,466,282,524,272s116-22,174-14.6c58,7.2,116,34,174.4,47,58.2,13,117,12.2,175.2,5.2,58.4-7,116.4-20.2,174.4-28.2s116-10.8,174-5.4,116,18.6,174.4,13.4c58.2-5.4,117-29.4,175.2-41,58.4-11.8,116.4-11,145.4-10.8l29,.4V0H0Z" fill="#414c76"/>
  <path id="Path_30" data-name="Path 30" d="M0,198l29,.6c29,.8,87,2,145.4,5.8,58.2,3.6,117,9.6,175.2,3.2,58.4-6.2,116.4-25,174.4-26s116,15.8,174,25.8,116,13.2,174.4,15c58.2,1.6,117,1.6,175.2,2.2,58.4.8,116.4,2,174.4-3.2,58-5.4,116-17.4,174-22.8,58-5.2,116-4,174.4.4,58.2,4.4,117,11.6,175.2,8.4C1804,204,1862,190,1891,183l29-7V0H0Z" fill="#45517d"/>
  <path id="Path_31" data-name="Path 31" d="M0,148H29c29,0,87,0,145.4,2.4,58.2,2.2,117,7,175.2,9.2C408,162,466,162,524,152.6c58-9.2,116-28,174-28.2,58-.4,116,17.6,174.4,22,58.2,4.2,117-5,175.2-12,58.4-7,116.4-11.8,174.4-8.4s116,14.6,174,17.4c58,2.6,116-3.4,174.4.6,58.2,4,117,18,175.2,23.4,58.4,5.2,116.4,2,145.4.2l29-1.6V0H0Z" fill="#495584"/>
  <path id="Path_32" data-name="Path 32" d="M0,112l29-6c29-6,87-18,145.4-23.4,58.2-5.2,117-4,175.2-4.6C408,77.4,466,74.6,524,73.6s116-.2,174,4C756,82,814,90,872.4,94c58.2,4,117,4,175.2,5.6,58.4,1.8,116.4,5,174.4-2s116-24.2,174-33.2,116-9.8,174.4-8.8c58.2,1,117,3.8,175.2,2.8,58.4-1,116.4-5.8,145.4-8l29-2.4V0H0Z" fill="#4e598c"/>
</svg>
