<svg id="visual" viewBox="0 0 960 140" width="960" height="140" xmlns="http://www.w3.org/2000/svg" xmlns:xlink="http://www.w3.org/1999/xlink" version="1.1"><path d="M0 27L14.5 26.8C29 26.7 58 26.3 87.2 26C116.3 25.7 145.7 25.3 174.8 25.5C204 25.7 233 26.3 262 29.3C291 32.3 320 37.7 349 36C378 34.3 407 25.7 436.2 26C465.3 26.3 494.7 35.7 523.8 36.3C553 37 582 29 611 29.3C640 29.7 669 38.3 698 38.3C727 38.3 756 29.7 785.2 25.2C814.3 20.7 843.7 20.3 872.8 24.7C902 29 931 38 945.5 42.5L960 47L960 141L945.5 141C931 141 902 141 872.8 141C843.7 141 814.3 141 785.2 141C756 141 727 141 698 141C669 141 640 141 611 141C582 141 553 141 523.8 141C494.7 141 465.3 141 436.2 141C407 141 378 141 349 141C320 141 291 141 262 141C233 141 204 141 174.8 141C145.7 141 116.3 141 87.2 141C58 141 29 141 14.5 141L0 141Z" fill="#283044"></path><path d="M0 55L14.5 54.2C29 53.3 58 51.7 87.2 51.5C116.3 51.3 145.7 52.7 174.8 51.8C204 51 233 48 262 47.5C291 47 320 49 349 49.8C378 50.7 407 50.3 436.2 52.2C465.3 54 494.7 58 523.8 56.3C553 54.7 582 47.3 611 46.3C640 45.3 669 50.7 698 54.2C727 57.7 756 59.3 785.2 56.3C814.3 53.3 843.7 45.7 872.8 42.3C902 39 931 40 945.5 40.5L960 41L960 141L945.5 141C931 141 902 141 872.8 141C843.7 141 814.3 141 785.2 141C756 141 727 141 698 141C669 141 640 141 611 141C582 141 553 141 523.8 141C494.7 141 465.3 141 436.2 141C407 141 378 141 349 141C320 141 291 141 262 141C233 141 204 141 174.8 141C145.7 141 116.3 141 87.2 141C58 141 29 141 14.5 141L0 141Z" fill="#2d374f"></path><path d="M0 62L14.5 60.7C29 59.3 58 56.7 87.2 57.2C116.3 57.7 145.7 61.3 174.8 64.3C204 67.3 233 69.7 262 69.7C291 69.7 320 67.3 349 68C378 68.7 407 72.3 436.2 71.8C465.3 71.3 494.7 66.7 523.8 62.3C553 58 582 54 611 54.8C640 55.7 669 61.3 698 62.8C727 64.3 756 61.7 785.2 61.8C814.3 62 843.7 65 872.8 63.5C902 62 931 56 945.5 53L960 50L960 141L945.5 141C931 141 902 141 872.8 141C843.7 141 814.3 141 785.2 141C756 141 727 141 698 141C669 141 640 141 611 141C582 141 553 141 523.8 141C494.7 141 465.3 141 436.2 141C407 141 378 141 349 141C320 141 291 141 262 141C233 141 204 141 174.8 141C145.7 141 116.3 141 87.2 141C58 141 29 141 14.5 141L0 141Z" fill="#333d5b"></path><path d="M0 85L14.5 82.8C29 80.7 58 76.3 87.2 73.2C116.3 70 145.7 68 174.8 67C204 66 233 66 262 68.2C291 70.3 320 74.7 349 76.5C378 78.3 407 77.7 436.2 75.8C465.3 74 494.7 71 523.8 71.7C553 72.3 582 76.7 611 76.3C640 76 669 71 698 69.5C727 68 756 70 785.2 73.8C814.3 77.7 843.7 83.3 872.8 83.8C902 84.3 931 79.7 945.5 77.3L960 75L960 141L945.5 141C931 141 902 141 872.8 141C843.7 141 814.3 141 785.2 141C756 141 727 141 698 141C669 141 640 141 611 141C582 141 553 141 523.8 141C494.7 141 465.3 141 436.2 141C407 141 378 141 349 141C320 141 291 141 262 141C233 141 204 141 174.8 141C145.7 141 116.3 141 87.2 141C58 141 29 141 14.5 141L0 141Z" fill="#394467"></path><path d="M0 81L14.5 81.2C29 81.3 58 81.7 87.2 82.2C116.3 82.7 145.7 83.3 174.8 83.3C204 83.3 233 82.7 262 82.7C291 82.7 320 83.3 349 85.5C378 87.7 407 91.3 436.2 93C465.3 94.7 494.7 94.3 523.8 94.3C553 94.3 582 94.7 611 95.5C640 96.3 669 97.7 698 95.7C727 93.7 756 88.3 785.2 86C814.3 83.7 843.7 84.3 872.8 85.8C902 87.3 931 89.7 945.5 90.8L960 92L960 141L945.5 141C931 141 902 141 872.8 141C843.7 141 814.3 141 785.2 141C756 141 727 141 698 141C669 141 640 141 611 141C582 141 553 141 523.8 141C494.7 141 465.3 141 436.2 141C407 141 378 141 349 141C320 141 291 141 262 141C233 141 204 141 174.8 141C145.7 141 116.3 141 87.2 141C58 141 29 141 14.5 141L0 141Z" fill="#404b73"></path><path d="M0 108L14.5 109C29 110 58 112 87.2 112.3C116.3 112.7 145.7 111.3 174.8 110.8C204 110.3 233 110.7 262 108.7C291 106.7 320 102.3 349 103C378 103.7 407 109.3 436.2 110.3C465.3 111.3 494.7 107.7 523.8 107.7C553 107.7 582 111.3 611 111.2C640 111 669 107 698 104.5C727 102 756 101 785.2 102.3C814.3 103.7 843.7 107.3 872.8 107.2C902 107 931 103 945.5 101L960 99L960 141L945.5 141C931 141 902 141 872.8 141C843.7 141 814.3 141 785.2 141C756 141 727 141 698 141C669 141 640 141 611 141C582 141 553 141 523.8 141C494.7 141 465.3 141 436.2 141C407 141 378 141 349 141C320 141 291 141 262 141C233 141 204 141 174.8 141C145.7 141 116.3 141 87.2 141C58 141 29 141 14.5 141L0 141Z" fill="#475280"></path><path d="M0 123L14.5 121.5C29 120 58 117 87.2 116.5C116.3 116 145.7 118 174.8 118.7C204 119.3 233 118.7 262 119.2C291 119.7 320 121.3 349 123C378 124.7 407 126.3 436.2 126.2C465.3 126 494.7 124 523.8 123.7C553 123.3 582 124.7 611 125.2C640 125.7 669 125.3 698 126C727 126.7 756 128.3 785.2 128.7C814.3 129 843.7 128 872.8 125.7C902 123.3 931 119.7 945.5 117.8L960 116L960 141L945.5 141C931 141 902 141 872.8 141C843.7 141 814.3 141 785.2 141C756 141 727 141 698 141C669 141 640 141 611 141C582 141 553 141 523.8 141C494.7 141 465.3 141 436.2 141C407 141 378 141 349 141C320 141 291 141 262 141C233 141 204 141 174.8 141C145.7 141 116.3 141 87.2 141C58 141 29 141 14.5 141L0 141Z" fill="#4e598c"></path></svg>