<svg id="Layer_1" data-name="Layer 1" xmlns="http://www.w3.org/2000/svg" viewBox="0 0 542.22 86.17"><defs><style>.cls-1{fill:#fff;}</style></defs><path class="cls-1" d="M294.92,330.12a32.87,32.87,0,0,1-16.38-4,29,29,0,0,1-11.31-11.4,38.43,38.43,0,0,1,0-34.74,29.21,29.21,0,0,1,11.45-11.41,33.67,33.67,0,0,1,16.56-4,39.76,39.76,0,0,1,9.19,1,36.07,36.07,0,0,1,7.66,2.66l-.9,7.93a45,45,0,0,0-7.43-2.75,32.15,32.15,0,0,0-8.61-1.13,22,22,0,0,0-12.48,3.36,21.08,21.08,0,0,0-7.64,9,30.07,30.07,0,0,0-2.59,12.66A30.52,30.52,0,0,0,275,310a20.93,20.93,0,0,0,7.57,9A21.85,21.85,0,0,0,295,322.37a34.89,34.89,0,0,0,8.67-1,38,38,0,0,0,7.55-2.77l.9,7.93a42.65,42.65,0,0,1-7.61,2.57A40.63,40.63,0,0,1,294.92,330.12Z" transform="translate(-150.28 -264.5)"/><path class="cls-1" d="M338.63,329.76a21.71,21.71,0,0,1-11.83-3.09,20.37,20.37,0,0,1-7.48-8.29,27.29,27.29,0,0,1,0-23.21,20.37,20.37,0,0,1,7.48-8.29,24.15,24.15,0,0,1,23.64,0,20.3,20.3,0,0,1,7.51,8.29,27.29,27.29,0,0,1,0,23.21,20.3,20.3,0,0,1-7.51,8.29A21.72,21.72,0,0,1,338.63,329.76Zm0-7.21q6.58,0,10.1-4.17t3.52-11.61q0-7.42-3.52-11.6T338.63,291q-6.53,0-10.07,4.17T325,306.77q0,7.44,3.54,11.61T338.63,322.55Z" transform="translate(-150.28 -264.5)"/><path class="cls-1" d="M368.92,328.86V284.69h6.31l1.62,8.47-3.06-1.44a25.71,25.71,0,0,1,8.06-6.2,20.31,20.31,0,0,1,8.25-1.73,18.51,18.51,0,0,1,6.24,1.06,13.44,13.44,0,0,1,5.41,3.69,19,19,0,0,1,3.85,7.33l-2.25-1a17.59,17.59,0,0,1,6.08-8.12q4.11-3,11-3a19.33,19.33,0,0,1,9.33,2,13,13,0,0,1,5.7,6.26,25.92,25.92,0,0,1,1.92,10.71v26.05h-8.11v-26q0-6.22-2.44-9.06T418.94,291a13.89,13.89,0,0,0-6.22,1.19,8.74,8.74,0,0,0-3.53,3.09,11,11,0,0,0-1.58,4,22,22,0,0,0-.38,4v25.6h-8.12V304.52a21.2,21.2,0,0,0-1.3-8.34,7.79,7.79,0,0,0-3.65-4.05,12.4,12.4,0,0,0-5.41-1.13,16.05,16.05,0,0,0-8,2A9.9,9.9,0,0,0,376,299.2l1-4.41v34.07Z" transform="translate(-150.28 -264.5)"/><path class="cls-1" d="M448,350.67v-66h6.31l1.44,10.1-2.26-1.63a21.89,21.89,0,0,1,6.9-6.85,18.83,18.83,0,0,1,10.05-2.52,17.47,17.47,0,0,1,10.36,3.06,19.57,19.57,0,0,1,6.63,8.27,28.6,28.6,0,0,1,2.3,11.65,29.93,29.93,0,0,1-2.17,11.65,18.76,18.76,0,0,1-6.44,8.27,17.84,17.84,0,0,1-10.68,3.07,20.52,20.52,0,0,1-9.53-2.19,12.89,12.89,0,0,1-6.15-6.56l1.35-1.62v31.28Zm20.91-28.12a11.11,11.11,0,0,0,9.21-4.17q3.32-4.17,3.32-11.61t-3.32-11.6a11.11,11.11,0,0,0-9.21-4.17,13,13,0,0,0-6.65,1.74,12.39,12.39,0,0,0-4.8,5.22,19.16,19.16,0,0,0-1.8,8.81,19.6,19.6,0,0,0,1.8,9,11.8,11.8,0,0,0,4.8,5.11A13.55,13.55,0,0,0,468.88,322.55Z" transform="translate(-150.28 -264.5)"/><path class="cls-1" d="M514,329.76a17.43,17.43,0,0,1-8.83-2.1,13.44,13.44,0,0,1-5.57-6.37,27,27,0,0,1-1.91-10.91V284.69h8.11v23.44q0,7,2.41,10.72t7.87,3.7a13.85,13.85,0,0,0,6.94-1.81,9.47,9.47,0,0,0,4.41-5.76l-1.17,4.41v-34.7h8.11v44.17h-7.21l-1.62-8.66,2.16,1.45a15.82,15.82,0,0,1-5.38,6.1A15.37,15.37,0,0,1,514,329.76Z" transform="translate(-150.28 -264.5)"/><path class="cls-1" d="M560.63,329.76a12.85,12.85,0,0,1-6.71-1.53,9.29,9.29,0,0,1-3.68-4,11.71,11.71,0,0,1-1.15-5.07V291h-7.57l.72-6.31h6.85v-10.9l8.12-.82v11.72h11.62V291H557.21v23.25a26.88,26.88,0,0,0,.49,6.13,3.14,3.14,0,0,0,2.46,2.39,28.55,28.55,0,0,0,6.33.5h2.07l-.63,6.49Z" transform="translate(-150.28 -264.5)"/><path class="cls-1" d="M575.77,328.86V284.69h6.67l1,7.3a29.06,29.06,0,0,1,6.47-6.19,11.89,11.89,0,0,1,6.6-2,7.59,7.59,0,0,1,2.08.27l-.82,8.92a11.28,11.28,0,0,0-1.23-.2c-.44,0-.93-.07-1.47-.07a13.65,13.65,0,0,0-6.47,1.56,11.07,11.07,0,0,0-4.17,3.4v31.19Z" transform="translate(-150.28 -264.5)"/><path class="cls-1" d="M622.37,329.76a21.71,21.71,0,0,1-11.83-3.09,20.37,20.37,0,0,1-7.48-8.29,27.29,27.29,0,0,1,0-23.21,20.37,20.37,0,0,1,7.48-8.29,24.15,24.15,0,0,1,23.64,0,20.27,20.27,0,0,1,7.5,8.29,27.2,27.2,0,0,1,0,23.21,20.27,20.27,0,0,1-7.5,8.29A21.72,21.72,0,0,1,622.37,329.76Zm0-7.21q6.58,0,10.1-4.17T636,306.77q0-7.42-3.51-11.6T622.37,291q-6.52,0-10.07,4.17t-3.54,11.6q0,7.44,3.54,11.61T622.37,322.55Z" transform="translate(-150.28 -264.5)"/><path class="cls-1" d="M652.66,328.86V284.69H659l1.62,8.47-3.16-1.35q4.47-4.95,8.72-6.49a24.51,24.51,0,0,1,8.32-1.53q9.69,0,13.86,5.59t4.17,15.14v24.34h-8.12V304.52q0-7-2.61-10.27T672.85,291a17.22,17.22,0,0,0-8.18,2,9.58,9.58,0,0,0-4.89,6.24l1-4.95v34.61Z" transform="translate(-150.28 -264.5)"/><path class="cls-1" d="M192.56,315.2a7.31,7.31,0,1,0,7.33,7.31A7.33,7.33,0,0,0,192.56,315.2Z" transform="translate(-150.28 -264.5)"/><path class="cls-1" d="M210.44,305.25a25.33,25.33,0,0,0-35.73-.05,4.93,4.93,0,0,0,7,7,15.44,15.44,0,0,1,21.76,0,4.93,4.93,0,1,0,7-6.95Z" transform="translate(-150.28 -264.5)"/><path class="cls-1" d="M233.43,282.34a57.93,57.93,0,0,0-81.71,0,4.94,4.94,0,0,0,7,7,48,48,0,0,1,67.72,0,5,5,0,0,0,3.5,1.45,4.93,4.93,0,0,0,3.5-8.41Z" transform="translate(-150.28 -264.5)"/><path class="cls-1" d="M221.64,294.08a41.2,41.2,0,0,0-58.13,0,4.93,4.93,0,0,0,7,7,31.3,31.3,0,0,1,44.16,0,4.94,4.94,0,0,0,8.44-3.48A4.86,4.86,0,0,0,221.64,294.08Z" transform="translate(-150.28 -264.5)"/></svg>