<svg xmlns="http://www.w3.org/2000/svg" width="30.926" height="30.935" viewBox="0 0 30.926 30.935"><g transform="translate(-0.077 0)"><g transform="translate(0.077 0)"><g transform="translate(0)"><path d="M23.274,2.078A15.466,15.466,0,1,0,7.807,28.867,15.466,15.466,0,1,0,23.274,2.078Zm3.987,20.161A13.54,13.54,0,1,1,22.307,3.753,13.551,13.551,0,0,1,27.261,22.239Z" transform="translate(-0.077 0)" fill="#48589a"/></g></g><g transform="translate(8.776 8.706)"><path d="M157.352,149.114a6.768,6.768,0,1,0-.677,5.135A6.708,6.708,0,0,0,157.352,149.114ZM155,153.283a4.837,4.837,0,1,1,.481-3.668A4.8,4.8,0,0,1,155,153.283Z" transform="translate(-144.052 -144.1)" fill="#48589a"/></g><g transform="translate(13.082 17.889)"><g transform="translate(0 0)"><rect width="13.292" height="1.933" transform="translate(0 11.512) rotate(-60.007)" fill="#48589a"/></g></g><g transform="translate(3.035 6.381)"><g transform="translate(0)"><rect width="1.933" height="13.289" transform="matrix(0.866, -0.5, 0.5, 0.866, 0, 0.967)" fill="#48589a"/></g></g><g transform="translate(15.541 8.706)"><rect width="13.288" height="1.933" fill="#48589a"/></g></g></svg>