<svg xmlns="http://www.w3.org/2000/svg" width="23.515" height="30.871" viewBox="0 0 23.515 30.871"><g transform="translate(-61)"><path d="M84.25,7.5,77.015.265A.906.906,0,0,0,76.375,0H63.713A2.716,2.716,0,0,0,61,2.713V28.158a2.716,2.716,0,0,0,2.713,2.713H81.8a2.716,2.716,0,0,0,2.713-2.713V8.14A.913.913,0,0,0,84.25,7.5ZM77.28,3.088l4.147,4.147H78.184a.905.905,0,0,1-.9-.9ZM81.8,29.062H63.713a.905.905,0,0,1-.9-.9V2.713a.905.905,0,0,1,.9-.9H75.471V6.331a2.716,2.716,0,0,0,2.713,2.713h4.522V28.158A.905.905,0,0,1,81.8,29.062Z" fill="#4e598c"/><path d="M162.757,212H151.9a.9.9,0,0,0,0,1.809h10.853a.9.9,0,0,0,0-1.809Z" transform="translate(-84.573 -199.218)" fill="#4e598c"/><path d="M162.757,272H151.9a.9.9,0,0,0,0,1.809h10.853a.9.9,0,0,0,0-1.809Z" transform="translate(-84.573 -255.6)" fill="#4e598c"/><path d="M162.757,332H151.9a.9.9,0,0,0,0,1.809h10.853a.9.9,0,0,0,0-1.809Z" transform="translate(-84.573 -311.982)" fill="#4e598c"/><path d="M159.14,392H151.9a.9.9,0,0,0,0,1.809h7.235a.9.9,0,0,0,0-1.809Z" transform="translate(-84.573 -368.365)" fill="#4e598c"/></g></svg>