<svg xmlns="http://www.w3.org/2000/svg" width="31" height="31" viewBox="0 0 31 31"><path d="M1.859,24.827V28.01a1.752,1.752,0,0,0,1.75,1.75H4.1A1.342,1.342,0,0,0,5.439,31h3.6a1.342,1.342,0,0,0,1.341-1.341v-4.9a.454.454,0,1,0-.908,0v4.9a.433.433,0,0,1-.433.432H5.439a.433.433,0,0,1-.432-.432V17.75a.433.433,0,0,1,.432-.432h3.6a.433.433,0,0,1,.433.432v4.9a.454.454,0,1,0,.908,0v-4.9a1.342,1.342,0,0,0-1.341-1.341h-3.6A1.342,1.342,0,0,0,4.1,17.649H3.609a1.739,1.739,0,0,0-.842.216V15.614a12.919,12.919,0,0,1,3.994-9.3,1.864,1.864,0,0,0,1.981-.143,11.486,11.486,0,0,1,13.517,0,1.864,1.864,0,0,0,2.026.118A12.755,12.755,0,0,1,28.233,15.5v2.365a1.739,1.739,0,0,0-.842-.216H26.9a1.342,1.342,0,0,0-1.337-1.24h-.738a.454.454,0,0,0,0,.908h.738a.433.433,0,0,1,.433.432V29.659a.433.433,0,0,1-.433.432h-3.6a.433.433,0,0,1-.433-.432V17.75a.433.433,0,0,1,.433-.432H22.7a.454.454,0,1,0,0-.908h-.738a1.342,1.342,0,0,0-1.341,1.341V29.659A1.342,1.342,0,0,0,21.966,31h3.6A1.342,1.342,0,0,0,26.9,29.76h.493a1.752,1.752,0,0,0,1.75-1.75V24.827A2.317,2.317,0,0,0,31,22.559V15.5a15.5,15.5,0,0,0-31,0v7.059a2.317,2.317,0,0,0,1.859,2.268ZM28.233,28.01a.843.843,0,0,1-.842.842H26.9v-10.3h.489a.843.843,0,0,1,.842.842ZM3.609,18.557H4.1v10.3H3.609a.843.843,0,0,1-.842-.842V19.4A.843.843,0,0,1,3.609,18.557Zm26.483,4a1.407,1.407,0,0,1-.951,1.33V20.937h.951Zm0-7.059v4.528h-.951V15.5a13.664,13.664,0,0,0-4.166-9.8l.677-.677A14.5,14.5,0,0,1,30.092,15.5ZM15.5.908a14.538,14.538,0,0,1,9.48,3.5c-1.117,1.117-.9.9-.974.971a.959.959,0,0,1-1.213.062,12.393,12.393,0,0,0-14.585,0,.96.96,0,0,1-1.249-.1L6.02,4.407A14.538,14.538,0,0,1,15.5.908ZM.908,15.5A14.5,14.5,0,0,1,5.348,5.019l.712.712a13.828,13.828,0,0,0-4.2,9.883v4.414H.908Zm0,5.437h.951v2.952a1.407,1.407,0,0,1-.951-1.329Z" transform="translate(0 0)" fill="#4e598c"/></svg>